<?xml version="1.0" encoding="utf-8"?>
<!-- Generator: Adobe Illustrator 16.0.0, SVG Export Plug-In . SVG Version: 6.00 Build 0)  -->
<!DOCTYPE svg PUBLIC "-//W3C//DTD SVG 1.1//EN" "http://www.w3.org/Graphics/SVG/1.1/DTD/svg11.dtd">
<svg version="1.1" id="Capa_1" xmlns="http://www.w3.org/2000/svg" xmlns:xlink="http://www.w3.org/1999/xlink" x="0px" y="0px"
	 width="139.492px" height="185.908px" viewBox="314.088 326.087 139.492 185.908"
	 enable-background="new 314.088 326.087 139.492 185.908" xml:space="preserve">
<g>
	<path fill="#2A2C74" d="M384.241,339.339c-33.22,0-60.249,27.029-60.249,60.252c0,8.666,1.773,16.94,5.27,24.594
		c15.063,32.964,43.945,67.767,52.44,77.646c0.637,0.738,1.564,1.164,2.541,1.164s1.904-0.426,2.54-1.164
		c8.492-9.879,37.374-44.68,52.442-77.646c3.497-7.653,5.27-15.928,5.27-24.594C444.492,366.368,417.462,339.339,384.241,339.339z
		 M384.241,430.886c-17.257,0-31.297-14.04-31.297-31.297c0-17.258,14.04-31.298,31.297-31.298s31.297,14.04,31.297,31.298
		C415.54,416.846,401.499,430.886,384.241,430.886z"/>
</g>
</svg>
