<?xml version="1.0" encoding="utf-8"?>
<!-- Generator: Adobe Illustrator 16.0.0, SVG Export Plug-In . SVG Version: 6.00 Build 0)  -->
<!DOCTYPE svg PUBLIC "-//W3C//DTD SVG 1.1//EN" "http://www.w3.org/Graphics/SVG/1.1/DTD/svg11.dtd">
<svg version="1.1" id="Capa_1" xmlns="http://www.w3.org/2000/svg" xmlns:xlink="http://www.w3.org/1999/xlink" x="0px" y="0px"
	 width="139.492px" height="185.908px" viewBox="314.088 326.087 139.492 185.908"
	 enable-background="new 314.088 326.087 139.492 185.908" xml:space="preserve">
<g>
	<g>
		<path fill="#2B2C74" d="M317.088,382.127v5.291v76.729v5.291h132.291v-5.291v-76.729v-5.291H317.088z M371.822,395.438
			c1.214-2.221,2.886-3.892,5.003-5.002c2.111-1.121,4.512-1.695,7.234-1.695c2.299,0,4.364,0.47,6.159,1.364
			c1.796,0.906,3.143,2.184,4.094,3.845c0.94,1.659,1.447,3.454,1.447,5.416c0,2.339-0.716,4.428-2.149,6.325
			c-1.807,2.381-4.125,3.597-6.945,3.597c-0.757,0-1.35-0.143-1.736-0.413c-0.381-0.27-0.62-0.64-0.743-1.157
			c-1.074,1.045-2.313,1.572-3.721,1.572c-1.52,0-2.804-0.525-3.803-1.572c-0.999-1.057-1.488-2.482-1.488-4.217
			c0-2.166,0.569-4.093,1.778-5.872c1.466-2.166,3.333-3.267,5.622-3.267c1.627,0,2.864,0.61,3.638,1.86l0.33-1.487h3.639
			l-2.066,9.839c-0.13,0.624-0.206,1.016-0.206,1.198c0,0.238,0.06,0.42,0.165,0.537c0.102,0.118,0.228,0.166,0.371,0.166
			c0.446,0,1.003-0.246,1.695-0.786c0.935-0.689,1.7-1.648,2.274-2.811c0.579-1.175,0.867-2.42,0.867-3.68
			c0-2.251-0.811-4.134-2.439-5.664c-1.632-1.508-3.904-2.273-6.82-2.273c-2.482,0-4.56,0.506-6.284,1.529
			c-1.719,1.004-3.04,2.457-3.929,4.3c-0.869,1.831-1.281,3.752-1.281,5.746c0,1.93,0.439,3.709,1.405,5.292
			c0.982,1.595,2.377,2.698,4.134,3.432c1.762,0.722,3.769,1.117,6.035,1.117c2.182,0,4.086-0.296,5.663-0.911
			c1.573-0.614,2.842-1.542,3.804-2.77h2.893c-0.911,1.863-2.325,3.314-4.217,4.381c-2.17,1.209-4.784,1.822-7.895,1.822
			c-3.025,0-5.664-0.506-7.855-1.529c-2.204-1.024-3.804-2.513-4.879-4.506c-1.067-1.994-1.611-4.183-1.611-6.533
			C370.003,400.059,370.604,397.669,371.822,395.438z M444.087,390.685l-39.729,33.816l39.729,37.413v2.233h-5.332l-38.448-36.174
			l-17.074,14.511l-17.072-14.511l-38.448,36.174h-5.333v-2.233l39.729-37.413l-39.729-33.816v-3.267h4.341l56.513,48.122
			l56.514-48.122h4.341V390.685L444.087,390.685z"/>
		<path fill="#2B2C74" d="M382.943,396.844c-0.784,0-1.561,0.295-2.233,0.91c-0.666,0.615-1.149,1.474-1.487,2.605
			c-0.339,1.133-0.496,2.145-0.496,3.018c0,1.163,0.235,2.013,0.702,2.563c0.479,0.551,1.038,0.827,1.735,0.827
			c0.521,0,1.03-0.113,1.488-0.372c0.349-0.184,0.694-0.521,1.033-0.91c0.482-0.56,0.892-1.361,1.241-2.439
			c0.35-1.067,0.537-2.049,0.537-2.977c0-1.034-0.261-1.848-0.744-2.397C384.243,397.111,383.674,396.844,382.943,396.844z"/>
	</g>
</g>
</svg>
