<?xml version="1.0" encoding="utf-8"?>
<!-- Generator: Adobe Illustrator 16.0.0, SVG Export Plug-In . SVG Version: 6.00 Build 0)  -->
<!DOCTYPE svg PUBLIC "-//W3C//DTD SVG 1.1//EN" "http://www.w3.org/Graphics/SVG/1.1/DTD/svg11.dtd">
<svg version="1.1" id="Capa_1" xmlns="http://www.w3.org/2000/svg" xmlns:xlink="http://www.w3.org/1999/xlink" x="0px" y="0px"
	 width="139.492px" height="185.908px" viewBox="314.088 326.087 139.492 185.908"
	 enable-background="new 314.088 326.087 139.492 185.908" xml:space="preserve">
<g>
	<g>
		<path fill="#2B2C74" d="M382.707,364.559c-36.793,0-66.619,29.826-66.619,66.619s29.826,66.619,66.619,66.619
			s66.619-29.826,66.619-66.619S419.5,364.559,382.707,364.559z M382.707,487.388c-31.045,0-56.21-25.164-56.21-56.21
			s25.165-56.21,56.21-56.21c31.046,0,56.21,25.164,56.21,56.21S413.753,487.388,382.707,487.388z"/>
		<path fill="#2B2C74" d="M398.279,416.178c0.046-0.288,0.065-0.558,0.065-0.806c0-2.289-1.43-3.426-4.294-3.426
			c-1.375,0-2.302,0.233-2.781,0.699c-0.486,0.47-0.82,1.401-1.017,2.796c-1.098-1.546-2.204-2.587-3.316-3.127
			c-1.025-0.491-2.493-0.735-4.393-0.735c-4.892,0-9.134,2.487-12.718,7.459c-3.303,4.577-4.948,9.464-4.948,14.661
			c0,4.059,1.067,7.619,3.211,10.695c2.375,3.386,5.481,5.076,9.307,5.076c3.278,0,6.426-1.174,9.439-3.525
			c1.359,2.352,3.68,3.525,6.956,3.525c6.205,0,11.521-2.617,15.932-7.858c4.196-4.986,6.294-10.72,6.294-17.192
			c0-7.742-3.257-14.198-9.771-19.368c-6.033-4.784-12.935-7.184-20.717-7.184c-10.124,0-18.622,3.199-25.507,9.604
			c-7.082,6.604-10.623,15.029-10.623,25.284c0,10.478,3.63,18.524,10.884,24.145c6.515,5.062,15.057,7.587,25.636,7.587
			c4.506,0,8.898-0.703,13.184-2.118c4.7-1.542,8.567-3.737,11.605-6.583c0.979-0.939,1.923-2.082,2.817-3.425
			c1.118-1.637,1.671-2.96,1.671-3.964c0-0.76-0.266-1.439-0.802-2.036c-0.531-0.594-1.175-0.891-1.914-0.891
			c-1.403,0-2.582,0.494-3.545,1.477c-1.59,1.707-2.774,3.009-3.539,3.903c-5.204,4.545-11.669,6.818-19.411,6.818
			c-8.302,0-14.948-2.037-19.928-6.112c-5.445-4.452-8.165-10.832-8.165-19.136c0-8.059,2.586-14.79,7.771-20.197
			c5.179-5.406,11.706-8.109,19.569-8.109c6.189,0,11.332,1.756,15.438,5.277c4.4,3.731,6.593,8.702,6.593,14.899
			c0,3.243-0.554,6.269-1.671,9.062c-1.245,3.136-3.051,5.55-5.408,7.248c-1.772,1.274-3.16,1.913-4.163,1.913
			c-1.096,0-1.64-0.514-1.64-1.542c0-0.427,0.28-2.395,0.854-5.912L398.279,416.178z M385.658,434.71
			c-2.012,5.585-4.155,8.379-6.423,8.379c-3.393,0-5.088-2.163-5.088-6.496c0-3.362,0.971-7.146,2.923-11.367
			c2.274-4.983,4.861-7.47,7.768-7.47c1.204,0,2.099,0.651,2.688,1.946c0.48,0.994,0.721,2.173,0.721,3.538
			C388.244,426.161,387.388,429.981,385.658,434.71z"/>
	</g>
</g>
</svg>
