<?xml version="1.0" encoding="utf-8"?>
<!-- Generator: Adobe Illustrator 16.0.0, SVG Export Plug-In . SVG Version: 6.00 Build 0)  -->
<!DOCTYPE svg PUBLIC "-//W3C//DTD SVG 1.1//EN" "http://www.w3.org/Graphics/SVG/1.1/DTD/svg11.dtd">
<svg version="1.1" id="Layer_1" xmlns="http://www.w3.org/2000/svg" xmlns:xlink="http://www.w3.org/1999/xlink" x="0px" y="0px"
	 width="134px" height="134px" viewBox="0 0 134 134" enable-background="new 0 0 134 134" xml:space="preserve">
<circle fill="#292B74" cx="67" cy="67" r="53.29"/>
<g>
	<g opacity="0.5">
		<path fill="#FFFFFF" d="M52.576,64.062c-5.875,9.215-14.29,23.105-14.29,28.717c0,8.681,8.682,8.681,8.682,8.681h20.168l0,0
			h20.165c0,0,8.681,0,8.681-8.681c0-5.611-8.414-19.502-14.289-28.717H52.576z"/>
	</g>
	<path fill="#FFFFFF" d="M75.55,55.381V35.347h2.939v-2.938H75.55l0,0h-8.681l0,0h-8.683l0,0h-2.939v2.938h2.939v20.166
		c0,0-20.168,28.719-20.168,37.398c0,8.681,8.683,8.681,8.683,8.681h20.168l0,0h20.167c0,0,8.682,0,8.682-8.681
		C95.718,84.231,75.55,55.381,75.55,55.381z M87.169,98.521H67.001H46.833c-0.937,0-5.743-0.265-5.743-5.741
		c0-5.611,12.021-24.844,19.632-35.662l0.534-0.802v-0.935V35.347h11.486v20.166v0.936l0.534,0.802
		c7.615,10.82,19.636,30.052,19.636,35.661C92.913,97.986,88.505,98.521,87.169,98.521z"/>
	<path fill="#FFFFFF" d="M55.515,84.097c1.622,0,2.94,1.315,2.94,2.936c0,1.623-1.318,2.941-2.94,2.941
		c-1.621,0-2.939-1.318-2.939-2.941C52.576,85.412,53.894,84.097,55.515,84.097z"/>
	<path fill="#FFFFFF" d="M64.062,69.805c3.171,0,5.746,2.572,5.746,5.743c0,3.174-2.575,5.744-5.746,5.744
		c-3.17,0-5.743-2.57-5.743-5.744C58.319,72.377,60.893,69.805,64.062,69.805z"/>
	<path fill="#FFFFFF" d="M75.55,81.292c3.172,0,5.74,2.568,5.74,5.74c0,3.171-2.568,5.747-5.74,5.747
		c-3.173,0-5.741-2.576-5.741-5.747C69.809,83.86,72.377,81.292,75.55,81.292z"/>
</g>
</svg>
