<?xml version="1.0" encoding="utf-8"?>
<!-- Generator: Adobe Illustrator 16.0.0, SVG Export Plug-In . SVG Version: 6.00 Build 0)  -->
<!DOCTYPE svg PUBLIC "-//W3C//DTD SVG 1.1//EN" "http://www.w3.org/Graphics/SVG/1.1/DTD/svg11.dtd">
<svg version="1.1" id="Layer_1" xmlns="http://www.w3.org/2000/svg" xmlns:xlink="http://www.w3.org/1999/xlink" x="0px" y="0px"
	 width="134px" height="134px" viewBox="0 0 134 134" enable-background="new 0 0 134 134" xml:space="preserve">
<g>
	<g id="Check_Circle">
		<path fill="#282A74" d="M67,27.123c-22.024,0-39.877,17.853-39.877,39.877S44.976,106.877,67,106.877
			c22.022,0,39.877-17.854,39.877-39.877C106.877,44.976,89.022,27.123,67,27.123z M67,101.893
			c-19.271,0-34.893-15.622-34.893-34.893S47.729,32.107,67,32.107c19.271,0,34.893,15.622,34.893,34.893S86.271,101.893,67,101.893
			z"/>
		<path fill="#282A74" d="M85.194,53.026L59.553,78.438L48.884,67.979c-0.982-0.974-2.577-0.974-3.56,0
			c-0.984,0.975-0.984,2.552,0,3.524l12.459,12.21c1.021,0.899,2.55,0.999,3.559,0L88.756,56.55c0.981-0.972,0.981-2.552,0-3.523
			C87.771,52.054,86.179,52.054,85.194,53.026z"/>
	</g>
</g>
</svg>
