<?xml version="1.0" encoding="utf-8"?>
<!-- Generator: Adobe Illustrator 16.0.0, SVG Export Plug-In . SVG Version: 6.00 Build 0)  -->
<!DOCTYPE svg PUBLIC "-//W3C//DTD SVG 1.1//EN" "http://www.w3.org/Graphics/SVG/1.1/DTD/svg11.dtd">
<svg version="1.1" id="Layer_1" xmlns="http://www.w3.org/2000/svg" xmlns:xlink="http://www.w3.org/1999/xlink" x="0px" y="0px"
	 width="134px" height="134px" viewBox="0 0 134 134" enable-background="new 0 0 134 134" xml:space="preserve">
<ellipse fill="#292B74" cx="67" cy="67" rx="53.37" ry="51.864"/>
<g>
	<path fill="#FFFFFF" d="M43.946,98.943h45.801c4.439,0,8.046-3.607,8.046-8.047V59.579l-8.046,8.046v23.271H43.946V45.103h36.697
		l6.456-6.458c0.61-0.61,1.281-1.14,1.998-1.589H43.946c-4.439,0-8.046,3.607-8.046,8.046v45.802
		C35.9,95.336,39.507,98.943,43.946,98.943z"/>
	<path fill="#FFFFFF" d="M100.147,41.569c-1.302-1.348-3.004-2.065-4.729-2.166c-0.14-0.007-0.273-0.014-0.415-0.014
		c-1.83,0-3.662,0.697-5.062,2.098L67.547,63.882c-0.756-0.812-5.437-5.524-5.437-5.524c-1.395-1.395-3.231-2.098-5.062-2.098
		s-3.662,0.697-5.062,2.098c-2.796,2.796-2.796,7.328,0,10.125l5.485,5.484l5.062,5.062c1.341,1.342,3.165,2.1,5.062,2.1
		c1.898,0,3.722-0.752,5.062-2.1l27.236-27.236C102.682,48.998,102.896,44.405,100.147,41.569z"/>
</g>
</svg>
