<?xml version="1.0" encoding="utf-8"?>
<!-- Generator: Adobe Illustrator 16.0.0, SVG Export Plug-In . SVG Version: 6.00 Build 0)  -->
<!DOCTYPE svg PUBLIC "-//W3C//DTD SVG 1.1//EN" "http://www.w3.org/Graphics/SVG/1.1/DTD/svg11.dtd">
<svg version="1.1" id="Layer_1" xmlns="http://www.w3.org/2000/svg" xmlns:xlink="http://www.w3.org/1999/xlink" x="0px" y="0px"
	 width="134px" height="134px" viewBox="0 0 134 134" enable-background="new 0 0 134 134" xml:space="preserve">
<g>
	<g>
		<path fill="#282A74" d="M44.443,83.168c-6.002,0-10.867,4.862-10.867,10.865s4.864,10.865,10.867,10.865
			c6.004,0,10.867-4.862,10.867-10.865S50.447,83.168,44.443,83.168z M44.443,98.757c-2.609,0-4.724-2.114-4.724-4.724
			c0-2.61,2.114-4.724,4.724-4.724s4.725,2.113,4.725,4.724C49.168,96.643,47.052,98.757,44.443,98.757z"/>
		<path fill="#282A74" d="M101.742,83.168c-6.003,0-10.866,4.862-10.866,10.865s4.863,10.865,10.866,10.865
			c6.004,0,10.866-4.862,10.866-10.865S107.746,83.168,101.742,83.168z M101.742,98.757c-2.609,0-4.724-2.114-4.724-4.724
			c0-2.61,2.114-4.724,4.724-4.724s4.726,2.113,4.726,4.724C106.468,96.643,104.352,98.757,101.742,98.757z"/>
		<path fill="#282A74" d="M56.667,49.782c0,1.523-1.246,2.768-2.769,2.768H15.7c-1.522,0-2.768-1.245-2.768-2.768v-1.661
			c0-1.522,1.246-2.768,2.768-2.768h38.199c1.523,0,2.769,1.246,2.769,2.768V49.782z"/>
		<path fill="#282A74" d="M123.034,65.989c-3.984-1.036-6.265-1.688-7.829-4.709l-5.231-10.592
			c-1.564-3.021-5.629-5.494-9.031-5.494h-7.155c0,0-0.962,0.02-0.962-0.949c0-2.221,0-8.883,0-8.883
			c0-3.443-1.949-6.261-6.095-6.261H28.416c-5.935,0-8.752,2.818-8.752,6.261v5.567c0,0,0,1.656,1.603,1.656
			c8.158,0,32.633,0,32.633,0c3.053,0,5.537,2.483,5.537,5.536v1.661c0,3.053-2.483,5.536-5.537,5.536H21.266
			c0,0-1.603-0.133-1.603,1.597c0,0.859,0,1.436,0,1.914c0,1.522,2.086,1.522,2.086,1.522h21.967c3.053,0,5.537,2.483,5.537,5.536
			v1.66c0,3.053-2.484,5.536-5.537,5.536H22.097c0,0-2.433-0.045-2.433,1.893c0,3.363,0,13.452,0,13.452
			c0,3.443,2.817,6.262,6.261,6.262c0,0,2.594,0,3.458,0c0.785,0,0.9-0.437,0.9-0.656c0-7.808,6.353-14.158,14.16-14.158
			s14.16,6.352,14.16,14.158c0,0.22-0.062,0.656,0.537,0.656c6.856,0,27.912,0,27.912,0c0.553,0,0.53-0.467,0.53-0.656
			c0-7.808,6.353-14.158,14.16-14.158s14.159,6.352,14.159,14.158c0,0.22-0.005,0.656,0.341,0.656c3.145,0,7.037,0,7.037,0
			c3.403,0,6.188-2.784,6.188-6.188V76.748C129.468,66.849,126.342,66.849,123.034,65.989z M111.261,65.438c0,0-13.141,0-17.612,0
			c-0.728,0-0.824-0.708-0.824-0.708V50.059c0,0-0.041-0.563,0.894-0.563c1.256,0,5.025,0,5.025,0c3.027,0,6.644,2.2,8.036,4.888
			l4.655,9.425c0.196,0.379,0.405,0.716,0.63,1.018C112.229,65.049,111.953,65.438,111.261,65.438z"/>
		<path fill="#282A74" d="M46.485,67.548c0,1.523-1.246,2.769-2.768,2.769H8.563c-1.523,0-2.768-1.245-2.768-2.769v-1.66
			c0-1.522,1.246-2.769,2.768-2.769h35.154c1.522,0,2.768,1.246,2.768,2.769V67.548z"/>
	</g>
</g>
</svg>
