<?xml version="1.0" encoding="utf-8"?>
<!-- Generator: Adobe Illustrator 16.0.0, SVG Export Plug-In . SVG Version: 6.00 Build 0)  -->
<!DOCTYPE svg PUBLIC "-//W3C//DTD SVG 1.1//EN" "http://www.w3.org/Graphics/SVG/1.1/DTD/svg11.dtd">
<svg version="1.1" id="Layer_1" xmlns="http://www.w3.org/2000/svg" xmlns:xlink="http://www.w3.org/1999/xlink" x="0px" y="0px"
	 width="134px" height="134px" viewBox="0 0 134 134" enable-background="new 0 0 134 134" xml:space="preserve">
<path fill="#FFFFFF" d="M24.8,66.682c0.03,22.817,18.836,41.606,41.382,41.343c22.779-0.266,41.296-18.88,41.343-41.562
	C107.572,43.797,88.856,25.26,65.964,25.3C43.05,25.338,24.77,43.715,24.8,66.682z"/>
<path fill-rule="evenodd" clip-rule="evenodd" fill="#292B74" d="M24.8,66.682C24.77,43.715,43.05,25.338,65.964,25.3
	c22.893-0.04,41.608,18.498,41.561,41.163c-0.047,22.682-18.563,41.296-41.343,41.562C43.636,108.288,24.83,89.499,24.8,66.682z
	 M38.99,73.987c1.176,3.425,1.986,7.045,3.671,10.197c0.969,1.813,3.721,4.326,5.035,3.995c4.163-1.046,5.894,0.356,6.716,4.108
	c0.894,4.077,2.869,4.727,6.789,2.976c2.222-0.992,5.776-1.031,7.837,0.11c3.392,1.878,4.802,1.646,6.788-1.745
	c1.074-1.833,4.246-3.88,6.073-3.56c5.216,0.916,7.138-1.049,6.132-5.68c-1.401-6.453,6.478-4.595,7.042-8.234
	c0.579-3.72-1.959-8.396-0.522-11.409c2.609-5.471,2.304-8.123-3.558-10.327c-1.592-0.6-3.252-3.865-3.081-5.744
	c0.395-4.368-1.152-5.339-5.18-5.518c-2.236-0.101-5.169-1.536-6.412-3.325c-2.405-3.46-4.119-3.605-7.569-1.327
	c-1.754,1.156-5.397,1.104-7.298,0.03c-3.738-2.116-6.495-1.564-7.166,2.25c-1.168,6.632-7.297,2.515-9.326,4.865
	c-2.185,2.53-2.11,6.936-3.387,10.389c-0.265,0.715-2.748,0.521-3.145,1.293c-0.865,1.685-2.005,4.891-1.353,5.426
	C42.081,66.859,39.858,70.615,38.99,73.987z"/>
<path fill-rule="evenodd" clip-rule="evenodd" fill="#FFFFFF" d="M38.99,73.987c0.868-3.372,3.091-7.128-1.914-11.23
	c-0.652-0.535,0.488-3.741,1.353-5.426c0.396-0.771,2.88-0.578,3.145-1.293c1.277-3.453,1.202-7.859,3.387-10.389
	c2.029-2.35,8.158,1.768,9.326-4.865c0.671-3.814,3.428-4.366,7.166-2.25c1.9,1.074,5.544,1.126,7.298-0.03
	c3.45-2.278,5.164-2.133,7.569,1.327c1.243,1.789,4.176,3.224,6.412,3.325c4.027,0.179,5.574,1.15,5.18,5.518
	c-0.171,1.879,1.489,5.145,3.081,5.744c5.861,2.204,6.167,4.856,3.558,10.327c-1.437,3.013,1.102,7.689,0.522,11.409
	c-0.564,3.64-8.443,1.781-7.042,8.234c1.006,4.631-0.916,6.596-6.132,5.68c-1.827-0.32-4.999,1.727-6.073,3.56
	c-1.986,3.392-3.396,3.623-6.788,1.745c-2.061-1.142-5.615-1.103-7.837-0.11c-3.92,1.751-5.896,1.102-6.789-2.976
	c-0.822-3.752-2.553-5.154-6.716-4.108c-1.314,0.331-4.066-2.182-5.035-3.995C40.976,81.032,40.166,77.412,38.99,73.987z
	 M66.22,58.072c-5.458,0.304-8.52,3.085-8.556,8.611c-0.037,5.471,2.816,8.527,8.342,8.763c5.506,0.234,9.131-3.397,8.928-8.913
	C74.728,60.99,71.644,58.306,66.22,58.072z"/>
<path fill-rule="evenodd" clip-rule="evenodd" fill="#292B74" d="M66.22,58.072c5.424,0.233,8.508,2.918,8.714,8.461
	c0.203,5.516-3.422,9.147-8.928,8.913c-5.525-0.235-8.379-3.292-8.342-8.763C57.7,61.157,60.762,58.376,66.22,58.072z"/>
</svg>
