<?xml version="1.0" encoding="utf-8"?>
<!-- Generator: Adobe Illustrator 16.0.0, SVG Export Plug-In . SVG Version: 6.00 Build 0)  -->
<!DOCTYPE svg PUBLIC "-//W3C//DTD SVG 1.1//EN" "http://www.w3.org/Graphics/SVG/1.1/DTD/svg11.dtd">
<svg version="1.1" id="Layer_1" xmlns="http://www.w3.org/2000/svg" xmlns:xlink="http://www.w3.org/1999/xlink" x="0px" y="0px"
	 width="134px" height="134px" viewBox="0 0 134 134" enable-background="new 0 0 134 134" xml:space="preserve">
<g>
	<path fill="#282A74" d="M45.097,110.245L73.135,82.08c1.149-1.15,0.329-3.112-1.296-3.112h-2.236c-1.523,0-2.382-1.762-1.433-2.958
		l14.868-18.747c0.949-1.195,0.101-2.957-1.434-2.957H74.13c-1.506,0-2.363-1.715-1.46-2.92l18.992-25.263
		c0.903-1.205,0.046-2.92-1.46-2.92H60.166c-0.694,0-1.333,0.393-1.634,1.013L43.847,53.923c-0.603,1.214,0.283,2.638,1.633,2.638
		h6.772c1.351,0,2.236,1.424,1.634,2.638l-10.04,20.316c-0.603,1.214,0.283,2.638,1.633,2.638h6.38c1.351,0,2.227,1.405,1.643,2.619
		l-11.335,23.394C41.264,110.018,43.646,111.705,45.097,110.245z"/>
</g>
</svg>
