<?xml version="1.0" encoding="utf-8"?>
<!-- Generator: Adobe Illustrator 16.0.0, SVG Export Plug-In . SVG Version: 6.00 Build 0)  -->
<!DOCTYPE svg PUBLIC "-//W3C//DTD SVG 1.1//EN" "http://www.w3.org/Graphics/SVG/1.1/DTD/svg11.dtd">
<svg version="1.1" id="Layer_1" xmlns="http://www.w3.org/2000/svg" xmlns:xlink="http://www.w3.org/1999/xlink" x="0px" y="0px"
	 width="134px" height="134px" viewBox="0 0 134 134" enable-background="new 0 0 134 134" xml:space="preserve">
<g>
	<path fill="#292B74" d="M91.053,45.953c-0.328-0.328-0.747-0.492-1.257-0.492h-9.348c-0.62-3.023-1.786-5.648-3.499-7.871h12.737
		c0.51,0,0.929-0.164,1.258-0.491c0.325-0.328,0.489-0.747,0.489-1.258v-5.577c0-0.511-0.163-0.929-0.489-1.258
		c-0.329-0.327-0.748-0.491-1.258-0.491H44.203c-0.511,0-0.93,0.164-1.258,0.491c-0.327,0.328-0.491,0.747-0.491,1.258v7.271
		c0,0.474,0.173,0.884,0.519,1.229c0.347,0.347,0.757,0.52,1.23,0.52h7.927c7.689,0,12.573,2.059,14.65,6.177H44.203
		c-0.511,0-0.93,0.164-1.258,0.492c-0.327,0.328-0.491,0.747-0.491,1.258v5.576c0,0.51,0.163,0.93,0.491,1.257
		c0.328,0.328,0.748,0.491,1.258,0.491h23.344c-0.803,2.989-2.67,5.267-5.604,6.834s-6.806,2.352-11.616,2.352h-6.123
		c-0.474,0-0.884,0.173-1.23,0.519c-0.346,0.347-0.519,0.757-0.519,1.229v6.944c0,0.475,0.163,0.875,0.491,1.203
		c6.997,7.435,16.072,17.839,27.225,31.215c0.328,0.438,0.783,0.655,1.366,0.655h10.66c0.767,0,1.295-0.327,1.586-0.984
		c0.364-0.655,0.293-1.275-0.219-1.858C72.922,89.596,64.558,79.828,58.472,73.341c6.195-0.729,11.226-2.733,15.089-6.013
		c3.861-3.279,6.212-7.545,7.052-12.793h9.184c0.51,0,0.93-0.163,1.257-0.491c0.328-0.327,0.493-0.747,0.493-1.257v-5.576
		C91.546,46.7,91.381,46.281,91.053,45.953z"/>
</g>
</svg>
