<?xml version="1.0" encoding="utf-8"?>
<!-- Generator: Adobe Illustrator 16.0.0, SVG Export Plug-In . SVG Version: 6.00 Build 0)  -->
<!DOCTYPE svg PUBLIC "-//W3C//DTD SVG 1.1//EN" "http://www.w3.org/Graphics/SVG/1.1/DTD/svg11.dtd">
<svg version="1.1" id="Layer_1" xmlns="http://www.w3.org/2000/svg" xmlns:xlink="http://www.w3.org/1999/xlink" x="0px" y="0px"
	 width="134px" height="134px" viewBox="0 0 134 134" enable-background="new 0 0 134 134" xml:space="preserve">
<g>
	<g>
		<path fill="#282A74" d="M66.999,35.376c1.34,0,2.427-1.087,2.427-2.427v-9.515c0-1.338-1.087-2.426-2.427-2.426
			s-2.426,1.087-2.426,2.426v9.516C64.573,34.289,65.659,35.376,66.999,35.376z"/>
		<path fill="#282A74" d="M66.999,98.631c-1.34,0-2.426,1.087-2.426,2.427v9.509c0,1.339,1.086,2.426,2.426,2.426
			s2.427-1.087,2.427-2.426v-9.509C69.425,99.718,68.339,98.631,66.999,98.631z"/>
		<path fill="#282A74" d="M41.204,44.637c0.473,0.475,1.094,0.711,1.715,0.711s1.241-0.236,1.715-0.711
			c0.948-0.947,0.948-2.484,0-3.431l-6.724-6.726c-0.945-0.947-2.482-0.947-3.43,0c-0.947,0.948-0.947,2.483,0,3.432L41.204,44.637z
			"/>
		<path fill="#282A74" d="M92.796,89.366c-0.947-0.949-2.485-0.948-3.431-0.001c-0.949,0.946-0.949,2.482-0.004,3.431l6.726,6.732
			c0.476,0.474,1.096,0.71,1.718,0.71c0.62,0,1.24-0.236,1.715-0.709c0.948-0.947,0.948-2.483,0.004-3.433L92.796,89.366z"/>
		<path fill="#282A74" d="M35.372,67.001c0-1.338-1.086-2.426-2.426-2.426h-9.511c-1.34,0-2.427,1.088-2.427,2.426
			c0,1.341,1.087,2.426,2.427,2.426h9.511C34.286,69.427,35.372,68.342,35.372,67.001z"/>
		<path fill="#282A74" d="M110.566,64.575h-9.513c-1.339,0-2.426,1.088-2.426,2.426c0,1.341,1.087,2.426,2.426,2.426h9.513
			c1.339,0,2.426-1.085,2.426-2.426C112.992,65.663,111.906,64.575,110.566,64.575z"/>
		<path fill="#282A74" d="M41.203,89.366l-6.726,6.73c-0.946,0.949-0.946,2.485,0.001,3.433c0.475,0.473,1.094,0.709,1.715,0.709
			c0.621,0,1.243-0.236,1.716-0.71l6.727-6.732c0.946-0.947,0.946-2.484-0.001-3.431C43.686,88.417,42.15,88.417,41.203,89.366z"/>
		<path fill="#282A74" d="M91.08,45.348c0.621,0,1.24-0.236,1.715-0.711l6.725-6.725c0.949-0.949,0.949-2.484,0-3.432
			c-0.945-0.947-2.482-0.947-3.43,0l-6.725,6.726c-0.949,0.947-0.949,2.484,0,3.431C89.837,45.111,90.458,45.348,91.08,45.348z"/>
		<path fill="#282A74" d="M67,39.879c-14.957,0-27.125,12.167-27.125,27.122c0,14.957,12.168,27.127,27.125,27.127
			s27.127-12.17,27.127-27.127C94.127,52.045,81.957,39.879,67,39.879z M67,89.275c-12.283,0-22.272-9.993-22.272-22.274
			c0-12.28,9.991-22.269,22.272-22.269c12.28,0,22.271,9.99,22.271,22.269C89.271,79.282,79.28,89.275,67,89.275z"/>
	</g>
</g>
</svg>
