<?xml version="1.0" encoding="utf-8"?>
<!-- Generator: Adobe Illustrator 16.0.0, SVG Export Plug-In . SVG Version: 6.00 Build 0)  -->
<!DOCTYPE svg PUBLIC "-//W3C//DTD SVG 1.1//EN" "http://www.w3.org/Graphics/SVG/1.1/DTD/svg11.dtd">
<svg version="1.1" id="Layer_1" xmlns="http://www.w3.org/2000/svg" xmlns:xlink="http://www.w3.org/1999/xlink" x="0px" y="0px"
	 width="134px" height="134px" viewBox="0 0 134 134" enable-background="new 0 0 134 134" xml:space="preserve">
<g>
	<g id="check-circle-outline">
		<path fill="#282A74" d="M47.282,57.772l-6.675,6.675l21.456,21.457l47.68-47.68l-6.675-6.675L62.063,72.553L47.282,57.772z
			 M104.975,66.831c0,20.979-17.165,38.144-38.144,38.144c-20.979,0-38.144-17.164-38.144-38.144s17.165-38.144,38.144-38.144
			c3.814,0,7.152,0.477,10.489,1.43l7.629-7.628c-5.722-1.907-11.92-3.337-18.118-3.337c-26.224,0-47.68,21.456-47.68,47.68
			c0,26.224,21.456,47.68,47.68,47.68c26.224,0,47.68-21.456,47.68-47.68H104.975z"/>
	</g>
</g>
</svg>
