<?xml version="1.0" encoding="utf-8"?>
<!-- Generator: Adobe Illustrator 16.0.0, SVG Export Plug-In . SVG Version: 6.00 Build 0)  -->
<!DOCTYPE svg PUBLIC "-//W3C//DTD SVG 1.1//EN" "http://www.w3.org/Graphics/SVG/1.1/DTD/svg11.dtd">
<svg version="1.1" id="Layer_1" xmlns="http://www.w3.org/2000/svg" xmlns:xlink="http://www.w3.org/1999/xlink" x="0px" y="0px"
	 width="109px" height="32px" viewBox="0 0 109 32" enable-background="new 0 0 109 32" xml:space="preserve">
<g>
	<g id="Cancel">
		<path fill="#E36333" d="M54.371,3.978c-6.634,0-12.011,5.376-12.011,12.011C42.36,22.621,47.737,28,54.371,28
			c6.633,0,12.011-5.378,12.011-12.011C66.382,9.354,61.004,3.978,54.371,3.978z M54.371,26.498
			c-5.804,0-10.509-4.705-10.509-10.509c0-5.805,4.705-10.51,10.509-10.51c5.805,0,10.51,4.706,10.51,10.51
			C64.881,21.793,60.176,26.498,54.371,26.498z"/>
		<path fill="#E36333" d="M59.423,19.946l-3.954-3.956l3.932-3.899c0.297-0.294,0.297-0.769,0-1.062
			c-0.296-0.292-0.776-0.292-1.072,0l-3.927,3.895l-3.985-3.986c-0.295-0.298-0.775-0.298-1.071,0c-0.296,0.296-0.296,0.778,0,1.075
			l3.979,3.979l-4.001,3.969c-0.296,0.294-0.296,0.77,0,1.062c0.295,0.294,0.776,0.294,1.072,0l3.996-3.963l3.961,3.961
			c0.296,0.296,0.776,0.296,1.071,0C59.719,20.725,59.719,20.242,59.423,19.946z"/>
	</g>
</g>
</svg>
