<svg xmlns="http://www.w3.org/2000/svg" width="22" height="22" viewBox="0 0 22 22"><path fill="#c0e2ca" fill-opacity=".7" fill-rule="evenodd" d="M14.406 10.448l-4.787-4.787c-.338-.338-.683-.338-1.036 0s-.345.675.023 1.013l4.234 4.28-4.234 4.28c-.368.338-.376.675-.023 1.013.353.338.698.338 1.036 0l4.787-4.787c.153-.123.23-.291.23-.506 0-.215-.077-.384-.23-.506zm-3.406-10.448c-3.038 0-5.63 1.074-7.778 3.222-2.148 2.148-3.222 4.741-3.222 7.778 0 3.038 1.074 5.63 3.222 7.778 2.148 2.148 4.741 3.222 7.778 3.222 3.038 0 5.63-1.074 7.778-3.222 2.148-2.148 3.222-4.741 3.222-7.778 0-3.038-1.074-5.63-3.222-7.778-2.148-2.148-4.741-3.222-7.778-3.222zm.023 20.527c-2.623 0-4.871-.928-6.743-2.785-1.872-1.856-2.808-4.096-2.808-6.72 0-2.623.936-4.871 2.808-6.743 1.872-1.872 4.119-2.808 6.743-2.808 2.623 0 4.863.936 6.72 2.808 1.856 1.872 2.785 4.119 2.785 6.743 0 2.623-.928 4.863-2.785 6.72-1.856 1.856-4.096 2.785-6.72 2.785z"/></svg>