<?xml version="1.0" encoding="utf-8"?>
<!-- Generator: Adobe Illustrator 16.0.0, SVG Export Plug-In . SVG Version: 6.00 Build 0)  -->
<!DOCTYPE svg PUBLIC "-//W3C//DTD SVG 1.1//EN" "http://www.w3.org/Graphics/SVG/1.1/DTD/svg11.dtd">
<svg version="1.1" id="Layer_1" xmlns="http://www.w3.org/2000/svg" xmlns:xlink="http://www.w3.org/1999/xlink" x="0px" y="0px"
	 width="364.5px" height="207.334px" viewBox="0 0 364.5 207.334" enable-background="new 0 0 364.5 207.334" xml:space="preserve">
<path fill-rule="evenodd" clip-rule="evenodd" fill="#338D99" d="M158.682,111.687c0,5.42-1.625,9.376-4.877,11.872
	c-2.856,2.166-7.093,3.251-12.708,3.251h-2.02c-5.614,0-9.852-1.085-12.708-3.251c-3.251-2.496-4.876-6.452-4.876-11.872v-18.52
	h5.861v18.52c0,4.039,1.396,6.716,4.187,8.029c1.806,0.821,4.992,1.231,9.556,1.231c3.809,0,6.601-0.575,8.374-1.724
	c2.232-1.445,3.349-3.957,3.349-7.537v-18.52h5.862V111.687L158.682,111.687z M204.36,123.903c0,2.168-0.74,3.251-2.219,3.251
	c-1.083,0-2.298-0.674-3.644-2.019l-21.575-21.675v23.349h-5.812V96.073c0-0.788,0.212-1.47,0.641-2.044
	c0.426-0.575,1.033-0.862,1.821-0.862c1.085,0,2.2,0.574,3.35,1.724l21.575,21.624V93.167h5.862V123.903L204.36,123.903z
	 M224.078,126.81h-5.862V93.167h5.862V126.81L224.078,126.81z M267.343,99.028h-13.25v27.781h-5.812V99.028h-13.299v-5.861h32.361
	V99.028L267.343,99.028z M303.859,112.672h-19.21v-5.861h19.21V112.672L303.859,112.672z M305.387,126.81v-5.862h-23.2V99.028h23.2
	v-5.861h-29.063v33.643H305.387L305.387,126.81z M354.068,109.619c0,4.958-1.592,9.063-4.778,12.314
	c-3.187,3.252-7.239,4.876-12.165,4.876h-18.964V93.167h18.964c4.958,0,9.021,1.511,12.189,4.531
	C352.484,100.72,354.068,104.693,354.068,109.619L354.068,109.619z M348.207,110.111c0-3.251-1.042-5.911-3.128-7.98
	c-2.086-2.068-4.736-3.103-7.954-3.103h-13.152v21.919h13.152c3.218,0,5.868-1.001,7.954-3.005
	C347.165,115.939,348.207,113.33,348.207,110.111z"/>
<path fill-rule="evenodd" clip-rule="evenodd" fill="#496377" d="M223.053,139.069c-0.92-1.155-2.618-1.722-4.245-1.722
	c-2.24,0-4.505,1.086-4.505,3.608c0,2.124,1.674,2.807,3.349,3.209c1.722,0.401,2.595,0.684,2.595,1.627
	c0,1.015-0.991,1.346-1.816,1.346c-1.227,0-2.288-0.613-2.9-1.416l-1.864,1.745c1.086,1.202,2.902,1.863,4.646,1.863
	c2.478,0,4.718-1.014,4.718-3.774c0-2.215-1.981-2.971-3.656-3.373c-1.58-0.377-2.452-0.612-2.452-1.485
	c0-0.896,0.919-1.227,1.816-1.227c1.037,0,1.979,0.566,2.476,1.227L223.053,139.069z"/>
<path fill-rule="evenodd" clip-rule="evenodd" fill="#496377" d="M227.37,137.679v16.982h2.829v-7.17h0.047
	c0.73,1.133,2.169,1.839,3.75,1.839c3.445,0,5.567-2.735,5.567-6.037c0-3.35-2.266-5.945-5.495-5.945
	c-2.077,0-3.351,1.015-3.917,1.911h-0.07v-1.58H227.37L227.37,137.679z M236.686,143.293c0,1.768-1.061,3.678-3.255,3.678
	c-2.076,0-3.325-1.862-3.325-3.63c0-1.771,1.249-3.68,3.325-3.68C235.625,139.661,236.686,141.522,236.686,143.293z"/>
<path fill-rule="evenodd" clip-rule="evenodd" fill="#496377" d="M246.354,142.207c0.119-1.579,1.464-2.736,3.139-2.736
	c1.84,0,2.664,1.274,2.664,2.736H246.354L246.354,142.207z M254.987,143.479c0-4.078-2.31-6.132-5.473-6.132
	c-3.419,0-5.989,2.407-5.989,6.062c0,3.679,2.595,5.92,6.086,5.92c2.146,0,3.75-0.755,4.857-2.266l-1.887-1.509
	c-0.638,0.898-1.581,1.463-2.995,1.463c-1.651,0-3.113-1.181-3.232-2.783h8.609C254.987,143.976,254.987,143.741,254.987,143.479z"
	/>
<path fill-rule="evenodd" clip-rule="evenodd" fill="#496377" d="M269.279,139.117c-0.896-1.109-2.616-1.77-4.267-1.77
	c-3.327,0-6.063,2.313-6.063,5.993c0,3.772,2.784,5.989,6.133,5.989c1.675,0,3.232-0.566,4.175-1.579l-1.769-1.794
	c-0.543,0.661-1.511,1.014-2.383,1.014c-2.146,0-3.207-1.862-3.207-3.63c0-1.771,1.037-3.634,3.114-3.634
	c0.919,0,1.888,0.471,2.334,1.109L269.279,139.117z"/>
<path fill-rule="evenodd" clip-rule="evenodd" fill="#496377" d="M272.654,133.833c0,0.896,0.753,1.699,1.791,1.699
	c1.039,0,1.84-0.732,1.84-1.699s-0.801-1.697-1.84-1.697C273.407,132.136,272.654,132.936,272.654,133.833z"/>
<rect x="273.054" y="137.679" fill-rule="evenodd" clip-rule="evenodd" fill="#496377" width="2.83" height="11.321"/>
<path fill-rule="evenodd" clip-rule="evenodd" fill="#496377" d="M288.241,149h2.644v-6.888c0-2.264-0.991-4.765-5.048-4.765
	c-1.722,0-3.516,0.614-4.788,1.794l1.462,1.721c0.733-0.729,1.889-1.297,3.091-1.297c1.414,0,2.595,0.685,2.595,2.075v0.284
	c-3.539,0-7.784,0.472-7.784,3.844c0,2.643,2.43,3.514,4.245,3.514c1.604,0,2.948-0.731,3.514-1.722h0.07V149L288.241,149z
	 M288.196,144.235c0,1.793-1.038,2.902-2.973,2.902c-0.967,0-1.979-0.331-1.979-1.416c0-1.675,2.522-1.888,4.315-1.888h0.637
	V144.235z"/>
<rect x="296.118" y="131.169" fill-rule="evenodd" clip-rule="evenodd" fill="#496377" width="2.832" height="17.831"/>
<path fill-rule="evenodd" clip-rule="evenodd" fill="#F48120" d="M303.927,133.833c0,0.896,0.754,1.699,1.793,1.699
	c1.037,0,1.839-0.732,1.839-1.699s-0.802-1.697-1.839-1.697C304.681,132.136,303.927,132.936,303.927,133.833z"/>
<rect x="304.328" y="137.679" fill-rule="evenodd" clip-rule="evenodd" fill="#496377" width="2.83" height="11.321"/>
<path fill-rule="evenodd" clip-rule="evenodd" fill="#496377" d="M312.841,139.943v5.283c0,2.169,0.684,4.01,3.68,4.01
	c0.637,0,1.391-0.117,1.887-0.306l-0.095-2.218c-0.331,0.164-0.826,0.234-1.202,0.234c-1.251,0-1.486-0.729-1.486-1.744v-5.26h2.83
	v-2.265h-2.83V134.4h-2.783v3.278h-1.98v2.265H312.841z"/>
<path fill-rule="evenodd" clip-rule="evenodd" fill="#338D99" d="M322.039,133.833c0,0.896,0.755,1.699,1.793,1.699
	s1.84-0.732,1.84-1.699s-0.802-1.697-1.84-1.697S322.039,132.936,322.039,133.833z"/>
<rect x="322.439" y="137.679" fill-rule="evenodd" clip-rule="evenodd" fill="#496377" width="2.83" height="11.321"/>
<path fill-rule="evenodd" clip-rule="evenodd" fill="#496377" d="M332.771,142.207c0.117-1.579,1.462-2.736,3.135-2.736
	c1.841,0,2.667,1.274,2.667,2.736H332.771L332.771,142.207z M341.402,143.479c0-4.078-2.312-6.132-5.472-6.132
	c-3.421,0-5.991,2.407-5.991,6.062c0,3.679,2.596,5.92,6.085,5.92c2.146,0,3.75-0.755,4.859-2.266l-1.887-1.509
	c-0.636,0.898-1.58,1.463-2.996,1.463c-1.651,0-3.113-1.181-3.23-2.783h8.608C341.402,143.976,341.402,143.741,341.402,143.479z"/>
<path fill-rule="evenodd" clip-rule="evenodd" fill="#496377" d="M354.067,139.069c-0.92-1.155-2.617-1.722-4.244-1.722
	c-2.242,0-4.506,1.086-4.506,3.608c0,2.124,1.674,2.807,3.351,3.209c1.721,0.401,2.593,0.684,2.593,1.627
	c0,1.015-0.99,1.346-1.816,1.346c-1.225,0-2.288-0.613-2.901-1.416l-1.862,1.745c1.086,1.202,2.9,1.863,4.646,1.863
	c2.478,0,4.718-1.014,4.718-3.774c0-2.215-1.981-2.971-3.655-3.373c-1.582-0.377-2.453-0.612-2.453-1.485
	c0-0.896,0.92-1.227,1.815-1.227c1.037,0,1.981,0.566,2.478,1.227L354.067,139.069z"/>
<ellipse fill-rule="evenodd" clip-rule="evenodd" fill="#BBBDBF" cx="70.501" cy="162.911" rx="27.737" ry="4.394"/>
<path fill-rule="evenodd" clip-rule="evenodd" fill="#F48120" d="M69.469,103.472c25.217,3.486,44.255,15.466,42.506,26.751
	c-1.745,11.287-23.612,17.615-48.832,14.134c-25.218-3.488-44.254-15.465-42.507-26.752C22.382,106.315,44.25,99.988,69.469,103.472
	L69.469,103.472z M64.355,99.586c-29.87-4.133-55.766,3.343-57.83,16.694c-2.063,13.353,20.486,27.534,50.354,31.664
	c29.87,4.131,55.768-3.346,57.83-16.699C116.773,117.896,94.224,103.718,64.355,99.586z"/>
<path fill-rule="evenodd" clip-rule="evenodd" fill="#496377" d="M55.445,78.893c17.233,10.878,27.15,25.905,22.146,33.553
	c-3.956,6.049-16.054,5.681-29.462-0.113c-3.496-1.509-8.001-4.01-12.598-7.12c-1.583,0.485-3.065,1.032-4.438,1.636
	c5.245,3.354,10.86,6.243,16.442,8.384c14.586,5.595,27.348,5.539,31.709-1.136c5.917-9.05-5.833-26.841-26.243-39.729
	C32.592,61.481,11.245,58.371,5.325,67.422c-4.876,7.459,2.245,20.85,16.314,32.539c0.719,0.596,1.455,1.187,2.202,1.768
	c1.623-0.505,3.334-0.957,5.128-1.352C18.462,91.92,9.885,81.141,15.173,73.052C20.179,65.399,38.211,68.016,55.445,78.893z"/>
<path fill-rule="evenodd" clip-rule="evenodd" fill="#338D99" d="M75.206,82.869c-2.163,1.499-4.345,2.822-6.504,3.965
	c0.408,0.41,0.803,0.819,1.19,1.229c3.11-1.54,6.283-3.404,9.421-5.58c15.926-11.03,24.924-25.827,20.095-33.038
	c-4.83-7.212-21.659-4.114-37.583,6.917C54.18,61.657,47.536,67.802,43.27,75.787c-0.851,1.598-1.932,3.763-2.376,5.538
	c-0.806,3.156-0.587,5.95,0.838,8.076c3.7,5.528,14.45,5.001,26.438-0.514c-0.394-0.388-0.796-0.775-1.21-1.163
	c-10.584,5.164-20.245,5.825-23.489,0.973c-1.846-2.759-1.1-6.36,0.125-9.21c0.481-1.12,0.974-2.181,1.601-3.239
	c3.04-5.133,8.37-10.712,15.228-15.465c13.442-9.315,27.654-11.924,31.735-5.827C96.242,61.054,88.651,73.555,75.206,82.869z"/>
</svg>
