<?xml version="1.0" encoding="utf-8"?>
<!-- Generator: Adobe Illustrator 16.0.0, SVG Export Plug-In . SVG Version: 6.00 Build 0)  -->
<!DOCTYPE svg PUBLIC "-//W3C//DTD SVG 1.1//EN" "http://www.w3.org/Graphics/SVG/1.1/DTD/svg11.dtd">
<svg version="1.1" id="Layer_1" xmlns="http://www.w3.org/2000/svg" xmlns:xlink="http://www.w3.org/1999/xlink" x="0px" y="0px"
	 width="216px" height="207.334px" viewBox="0 0 216 207.334" enable-background="new 0 0 216 207.334" xml:space="preserve">
<path fill-rule="evenodd" clip-rule="evenodd" fill="#243E8F" d="M5,154.467c0,15.269,2.512,17.59,18.169,17.59
	c15.657,0,18.556-2.899,18.556-17.977c0-5.992-0.773-11.02-1.933-11.02s-1.933,5.222-1.933,11.6c0,12.949-2.32,15.463-14.497,15.463
	c-12.177,0-14.497-2.514-14.497-15.463c0-6.378-0.774-11.6-1.934-11.6C5.773,143.061,5,148.088,5,154.467z"/>
<path fill-rule="evenodd" clip-rule="evenodd" fill="#243E8F" d="M49.071,145.382c-0.387,1.354-0.387,8.116,0.193,15.078
	l1.159,12.562l0.966-12.952l0.967-13.145l14.111,12.567c7.732,6.957,14.884,12.563,15.851,12.563c1.158,0,1.932-6.572,1.932-14.497
	c0-9.086-0.773-14.499-2.126-14.499s-1.934,4.062-1.353,11.6c0.192,6.378,0,11.597-0.581,11.597c-0.58,0-7.151-5.219-14.303-11.597
	C52.163,142.482,50.424,141.516,49.071,145.382z"/>
<path fill-rule="evenodd" clip-rule="evenodd" fill="#243E8F" d="M91.982,157.56c0,8.312,0.773,14.497,1.934,14.497
	c1.159,0,1.933-6.186,1.933-14.497c0-8.312-0.774-14.499-1.933-14.499C92.755,143.061,91.982,149.247,91.982,157.56z"/>
<path fill-rule="evenodd" clip-rule="evenodd" fill="#243E8F" d="M108.026,144.415l7.153,0.773v13.529
	c0,7.539,0.771,13.339,1.933,13.339c1.158,0,1.933-5.8,1.933-13.339v-13.529l7.344-0.773c3.866-0.389-0.193-0.773-9.276-0.773
	C108.026,143.642,103.966,144.026,108.026,144.415z"/>
<path fill-rule="evenodd" clip-rule="evenodd" fill="#243E8F" d="M138.76,145.382c-3.094,3.092-3.094,21.262,0,24.354
	c1.547,1.546,7.731,2.128,17.011,1.934c12.176-0.192,12.754-0.388,3.867-0.966c-16.625-0.968-19.331-1.934-19.331-7.343
	c0-4.447,0.577-4.643,15.075-5.414l14.886-0.581l-15.078-0.386l-15.076-0.386l0.579-5.413c0.579-5.026,0.967-5.221,15.078-6.379
	l14.497-0.966l-14.497-0.387C146.492,143.255,140.307,143.836,138.76,145.382z"/>
<path fill-rule="evenodd" clip-rule="evenodd" fill="#243E8F" d="M175.874,156.979l0.193,14.11l15.074,0.579
	c9.665,0.388,16.238-0.192,17.977-1.739c4.06-3.286,3.673-24.162-0.385-25.709c-1.74-0.579-9.664-1.16-17.979-1.16h-14.881V156.979z
	 M207.574,156.398c0.771,12.759-0.389,13.725-16.433,13.725h-12.177V157.56v-12.758l14.11,0.58l13.918,0.578L207.574,156.398z"/>
<path fill="none" d="M50.102,94.738c0,0,16.752,32.213,94.071,10.631c0,0,32.216-9.666,28.995-33.827
	c-18.041-23.84-74.418-15.464-75.064-15.464C97.46,56.078,42.049,70.253,50.102,94.738z"/>
<path fill="#243E8F" d="M106.479,57.433C87.15,59.945,64.342,69.997,56.417,79.274c-13.531,16.044,1.546,29.769,35.565,32.281
	c37.113,2.705,81.186-15.463,81.186-33.439c0-5.22-9.472-16.237-13.92-16.237c-1.353,0.194-0.191,1.353,2.707,3.094
	c10.631,5.604,11.79,13.336,3.48,22.614c-20.104,23.004-87.37,26.674-98.001,5.413c-7.152-14.69,16.043-30.154,51.997-34.792
	c11.982-1.547,11.982-1.547,2.513-1.547C116.725,56.659,109.766,57.045,106.479,57.433z"/>
<path fill="#243E8F" d="M145.717,59.366c1.354,0.579,3.096,0.386,3.674-0.193c0.771-0.582-0.387-1.161-2.511-0.966
	C144.751,58.206,144.172,58.785,145.717,59.366z"/>
<path fill="#326699" d="M102.944,26.664C89.15,18.304,69.211,13.02,59.295,14.924c-17.036,3.382-14.378,20.045,6.32,39.243
	c22.597,20.919,60.475,31.939,69.762,20.315c2.695-3.373,2.264-15.39-0.612-17.686c-0.973-0.574-0.822,0.777,0.153,3.399
	c3.979,9.115,0.735,14.713-9.43,16.416C100.604,81.1,55.219,48.728,59.328,29.49c2.965-13.195,25.95-11.209,51.59,4.363
	c8.551,5.19,8.551,5.19,2.425,0.297C109.968,31.455,105.27,28.11,102.944,26.664z"/>
<path fill="#326699" d="M127.315,48.184c0.579,1.072,1.802,1.848,2.478,1.771c0.797,0.024,0.348-0.951-1.126-1.922
	C127.291,46.933,126.617,47.009,127.315,48.184z"/>
<path fill="#326699" d="M130.433,38.609c11.938-3.941,25.158-13.08,29.054-19.923c6.621-11.807-4.599-18.667-26.453-16.123
	c-23.836,2.798-49.546,19.664-47.359,31.051c0.634,3.306,7.975,9.133,10.789,8.593c0.834-0.286-0.043-0.882-2.091-1.631
	c-7.416-2.256-9.087-7.014-4.95-13.901c9.935-17.016,52.1-27.519,61.419-15.343c6.314,8.438-6.499,21.052-28.708,28.359
	c-7.406,2.438-7.406,2.438-1.405,1.286C124.035,40.344,128.395,39.253,130.433,38.609z"/>
<path fill="#326699" d="M105.338,42.155c-0.928-0.201-2.005,0.131-2.301,0.569c-0.419,0.459,0.386,0.688,1.708,0.305
	C106.094,42.772,106.389,42.334,105.338,42.155z"/>
<g>
	<path fill="#326699" d="M18.229,193.145c0,1.336-0.484,2.378-1.454,3.125c-0.969,0.748-2.284,1.122-3.945,1.122
		c-1.8,0-3.184-0.232-4.153-0.696v-1.702c0.623,0.263,1.301,0.471,2.035,0.623c0.734,0.152,1.46,0.229,2.18,0.229
		c1.177,0,2.062-0.224,2.658-0.67c0.595-0.446,0.893-1.067,0.893-1.863c0-0.526-0.105-0.957-0.316-1.293
		c-0.211-0.336-0.564-0.646-1.059-0.93c-0.495-0.283-1.248-0.605-2.258-0.965c-1.412-0.505-2.421-1.104-3.026-1.796
		c-0.605-0.692-0.908-1.596-0.908-2.71c0-1.17,0.439-2.101,1.318-2.793s2.042-1.038,3.488-1.038c1.509,0,2.896,0.276,4.164,0.83
		l-0.55,1.537c-1.253-0.526-2.471-0.789-3.655-0.789c-0.934,0-1.665,0.201-2.19,0.602c-0.526,0.402-0.789,0.959-0.789,1.672
		c0,0.526,0.097,0.957,0.291,1.293s0.521,0.644,0.981,0.924c0.46,0.28,1.164,0.59,2.112,0.929c1.592,0.568,2.688,1.177,3.286,1.827
		C17.929,191.263,18.229,192.106,18.229,193.145z"/>
	<path fill="#326699" d="M30.957,186.428c0,1.536-0.524,2.719-1.573,3.546c-1.049,0.827-2.549,1.24-4.501,1.24h-1.786v5.97h-1.765
		v-15.179h3.935C29.061,182.005,30.957,183.479,30.957,186.428z M23.098,189.698h1.588c1.564,0,2.696-0.253,3.395-0.758
		s1.049-1.315,1.049-2.43c0-1.003-0.329-1.751-0.986-2.242c-0.658-0.491-1.682-0.737-3.073-0.737h-1.973V189.698z"/>
	<path fill="#326699" d="M42.595,197.184h-8.461v-15.179h8.461v1.568h-6.697v4.89h6.292v1.557h-6.292v5.586h6.697V197.184z"/>
	<path fill="#326699" d="M52.458,183.365c-1.668,0-2.985,0.556-3.95,1.666c-0.966,1.111-1.448,2.632-1.448,4.563
		c0,1.986,0.465,3.521,1.396,4.604c0.931,1.083,2.258,1.624,3.981,1.624c1.059,0,2.267-0.19,3.624-0.57v1.547
		c-1.052,0.395-2.35,0.592-3.893,0.592c-2.236,0-3.961-0.679-5.176-2.035c-1.214-1.356-1.822-3.284-1.822-5.783
		c0-1.563,0.292-2.935,0.877-4.111c0.585-1.176,1.429-2.083,2.533-2.72s2.404-0.955,3.899-0.955c1.592,0,2.983,0.291,4.173,0.872
		l-0.748,1.516C54.756,183.635,53.607,183.365,52.458,183.365z"/>
	<path fill="#326699" d="M59.373,197.184v-15.179h1.765v15.179H59.373z"/>
	<path fill="#326699" d="M74.842,197.184l-1.89-4.828h-6.084L65,197.184h-1.786l6.001-15.241h1.484l5.97,15.241H74.842z
		 M72.402,190.768l-1.765-4.703c-0.229-0.595-0.464-1.325-0.706-2.19c-0.152,0.664-0.371,1.395-0.654,2.19l-1.786,4.703H72.402z"/>
	<path fill="#326699" d="M78.756,197.184v-15.179h1.765v13.58h6.697v1.599H78.756z"/>
	<path fill="#326699" d="M89.792,197.184v-15.179h1.765v15.179H89.792z"/>
	<path fill="#326699" d="M100.392,197.184h-1.765v-13.61H93.82v-1.568h11.378v1.568h-4.807V197.184z"/>
	<path fill="#326699" d="M107.483,197.184v-15.179h1.765v15.179H107.483z"/>
	<path fill="#326699" d="M121.872,197.184h-8.461v-15.179h8.461v1.568h-6.696v4.89h6.292v1.557h-6.292v5.586h6.696V197.184z"/>
	<path fill="#326699" d="M133.801,193.145c0,1.336-0.485,2.378-1.454,3.125c-0.969,0.748-2.284,1.122-3.945,1.122
		c-1.799,0-3.184-0.232-4.152-0.696v-1.702c0.623,0.263,1.301,0.471,2.035,0.623c0.733,0.152,1.46,0.229,2.18,0.229
		c1.177,0,2.062-0.224,2.658-0.67c0.595-0.446,0.893-1.067,0.893-1.863c0-0.526-0.105-0.957-0.316-1.293s-0.564-0.646-1.06-0.93
		c-0.494-0.283-1.247-0.605-2.258-0.965c-1.412-0.505-2.421-1.104-3.026-1.796c-0.605-0.692-0.908-1.596-0.908-2.71
		c0-1.17,0.439-2.101,1.318-2.793s2.042-1.038,3.488-1.038c1.509,0,2.896,0.276,4.163,0.83l-0.55,1.537
		c-1.253-0.526-2.471-0.789-3.654-0.789c-0.935,0-1.665,0.201-2.191,0.602c-0.525,0.402-0.789,0.959-0.789,1.672
		c0,0.526,0.098,0.957,0.291,1.293s0.521,0.644,0.981,0.924c0.46,0.28,1.164,0.59,2.112,0.929c1.592,0.568,2.688,1.177,3.286,1.827
		C133.501,191.263,133.801,192.106,133.801,193.145z"/>
	<path fill="#326699" d="M141.194,191.359c0-1.834,0.268-3.551,0.805-5.149c0.536-1.599,1.31-3.001,2.32-4.205H146
		c-0.997,1.336-1.746,2.804-2.248,4.402S143,189.649,143,191.339c0,1.661,0.256,3.284,0.768,4.869
		c0.513,1.585,1.25,3.031,2.212,4.34h-1.661c-1.018-1.177-1.793-2.551-2.326-4.122C141.46,194.854,141.194,193.166,141.194,191.359z
		"/>
	<path fill="#326699" d="M158.344,186.428c0,1.536-0.524,2.719-1.573,3.546c-1.048,0.827-2.549,1.24-4.5,1.24h-1.786v5.97h-1.765
		v-15.179h3.935C156.448,182.005,158.344,183.479,158.344,186.428z M150.485,189.698h1.589c1.563,0,2.695-0.253,3.395-0.758
		s1.049-1.315,1.049-2.43c0-1.003-0.329-1.751-0.986-2.242s-1.682-0.737-3.073-0.737h-1.973V189.698z"/>
	<path fill="#326699" d="M164.875,191.359c0,1.82-0.269,3.516-0.805,5.087c-0.537,1.571-1.311,2.938-2.32,4.102h-1.661
		c0.962-1.302,1.699-2.746,2.211-4.335c0.513-1.589,0.769-3.213,0.769-4.874c0-1.689-0.251-3.333-0.753-4.932
		s-1.251-3.066-2.247-4.402h1.682c1.018,1.212,1.792,2.618,2.325,4.221S164.875,189.539,164.875,191.359z"/>
	<path fill="#326699" d="M173.336,197.184v-15.179h1.765v13.58h6.696v1.599H173.336z"/>
	<path fill="#326699" d="M189.044,197.184h-1.765v-13.61h-4.808v-1.568h11.379v1.568h-4.807V197.184z"/>
	<path fill="#326699" d="M208.25,189.449c0,2.506-0.68,4.421-2.04,5.746c-1.359,1.325-3.316,1.988-5.87,1.988h-4.205v-15.179h4.651
		c2.359,0,4.194,0.654,5.502,1.962C207.597,185.275,208.25,187.103,208.25,189.449z M206.382,189.512
		c0-1.979-0.497-3.472-1.49-4.475c-0.993-1.004-2.469-1.506-4.428-1.506H197.9v12.126h2.149c2.104,0,3.686-0.518,4.744-1.552
		C205.853,193.07,206.382,191.539,206.382,189.512z"/>
</g>
<ellipse fill-rule="evenodd" clip-rule="evenodd" fill="#5E5E5E" cx="129.029" cy="118.575" rx="13.532" ry="2.255"/>
</svg>
